# xmcd
# 
# Track frame offsets:
#     150
#     28842
#     60347
#     87345
#     107220
#     126885
#     158452
#     181897
# 
# Disc length: 2800
# 
# Revision: 4
# Processed by: cddbd v1.5.2PL0 Copyright (c) Steve Scherf et al.
# Submitted via: fre:ac v1.0.17
# 
DISCID=5d0aee08
DTITLE=Patrick O'Hearn - Mix-Up (2076-2-P)
DYEAR=1990
DGENRE=New Age
TTITLE0=Fire Ritual (Re-mixed by David Frank)
TTITLE1=April Fool (Re-mixed by Joe 'The Butcher' Nicolo)
TTITLE2=Journey To Yoroba (Re-mixed by Laney Stewart)
TTITLE3=Black Delilah (Re-mixed by David Barrett)
TTITLE4=The Illusionist (Re-mixed by Carmen Rizzo Jr.)
TTITLE5=Mixed Up (Mixed by Joe 'The Butcher' Nicolo)
TTITLE6=Chatahochee Field Day (Re-mixed by David Barrett)
TTITLE7=So Saxy (Mixed by Joe 'The Butcher' Nicolo)
EXTD=YEAR: 1990
EXTT0=
EXTT1=
EXTT2=
EXTT3=
EXTT4=
EXTT5=
EXTT6=
EXTT7=
PLAYORDER=
